<?xml version="1.0" encoding="utf-8"?>
<!-- Generator: Adobe Illustrator 25.3.1, SVG Export Plug-In . SVG Version: 6.00 Build 0)  -->
<svg version="1.1" id="Layer_1" xmlns="http://www.w3.org/2000/svg" xmlns:xlink="http://www.w3.org/1999/xlink" x="0px" y="0px"
	 viewBox="0 0 41.3 48.1" style="enable-background:new 0 0 41.3 48.1;" xml:space="preserve">
<style type="text/css">
	.st0{fill:#FFFFFF;}
</style>
<g>
	<path class="st0" d="M17.6,5.8l2.2,3.9c1.3,2.2,0.5,5.1-1.8,6.4l-3.9,2.2c-3.1,1.7-6.9-0.4-7-3.9c-0.1-3.1,0.7-6.2,2.4-8.8
		C11.5,2.7,15.9,2.8,17.6,5.8"/>
	<path class="st0" d="M36.7,14.2l-3,3.3c-1.7,1.9-4.7,2-6.6,0.3l-3.3-3c-2.6-2.4-1.7-6.6,1.6-7.9c2.9-1.1,6.1-1.2,9.1-0.4
		C37.9,7.4,39.1,11.6,36.7,14.2"/>
	<path class="st0" d="M14.3,39.4l0.5-4.5c0.3-2.6,2.6-4.4,5.2-4.1l4.5,0.5c3.5,0.4,5.3,4.3,3.4,7.3c-1.7,2.6-4.2,4.6-7.1,5.7
		C17.4,45.6,13.9,42.9,14.3,39.4"/>
	<path class="st0" d="M3.7,21.4l4.4-0.9c2.5-0.5,5,1.1,5.5,3.6l0.9,4.4c0.7,3.4-2.5,6.4-5.9,5.4c-3-0.8-5.7-2.6-7.6-5
		C-1.2,26.2,0.3,22.1,3.7,21.4"/>
	<path class="st0" d="M34.7,35l-4.1-1.9c-2.4-1.1-3.4-3.8-2.3-6.2l1.9-4.1c1.5-3.2,5.8-3.7,8-0.9c1.9,2.4,3.1,5.4,3.2,8.5
		C41.5,34,37.9,36.4,34.7,35"/>
	<path class="st0" d="M21.4,29.8c-3.7,0-6.7-3-6.7-6.7c0-3.7,3-6.7,6.7-6.7c3.7,0,6.7,3,6.7,6.7C28.1,26.8,25.1,29.8,21.4,29.8
		 M21.4,17c-3.4,0-6.2,2.8-6.2,6.2c0,3.4,2.8,6.2,6.2,6.2c3.4,0,6.2-2.8,6.2-6.2C27.6,19.7,24.8,17,21.4,17"/>
</g>
</svg>
