<?xml version="1.0" encoding="utf-8"?>
<!-- Generator: Adobe Illustrator 25.3.1, SVG Export Plug-In . SVG Version: 6.00 Build 0)  -->
<svg version="1.1" id="Layer_1" xmlns="http://www.w3.org/2000/svg" xmlns:xlink="http://www.w3.org/1999/xlink" x="0px" y="0px"
	 viewBox="0 0 368.5 48" style="enable-background:new 0 0 368.5 48;" xml:space="preserve">
<style type="text/css">
	.st0{fill:#FFFFFF;}
</style>
<g>
	<polygon class="st0" points="54.1,47.5 41.6,13 51.1,13 61.4,42.7 56.9,42.7 67.6,13 76.2,13 86.5,42.7 82.2,42.7 92.8,13 
		101.6,13 89.1,47.5 79.5,47.5 70.3,22.1 73.1,22.1 63.8,47.5 	"/>
	<path class="st0" d="M121.7,48.1c-3.6,0-6.9-0.8-9.7-2.3c-2.8-1.5-5.1-3.6-6.7-6.3c-1.6-2.7-2.4-5.7-2.4-9.1c0-3.5,0.8-6.5,2.4-9.2
		c1.6-2.7,3.9-4.8,6.7-6.3c2.8-1.5,6.1-2.3,9.7-2.3c3.7,0,6.9,0.8,9.8,2.3c2.9,1.5,5.1,3.6,6.7,6.3c1.6,2.7,2.4,5.7,2.4,9.2
		c0,3.5-0.8,6.5-2.4,9.2c-1.6,2.7-3.9,4.7-6.7,6.3C128.6,47.3,125.4,48.1,121.7,48.1 M121.7,39.8c1.7,0,3.2-0.4,4.5-1.1
		c1.3-0.8,2.4-1.8,3.1-3.3c0.8-1.5,1.2-3.2,1.2-5.1c0-2-0.4-3.7-1.2-5.1c-0.8-1.4-1.8-2.5-3.1-3.2c-1.3-0.7-2.8-1.1-4.5-1.1
		c-1.7,0-3.2,0.4-4.5,1.1c-1.3,0.7-2.4,1.8-3.2,3.2c-0.8,1.4-1.2,3.1-1.2,5.1c0,2,0.4,3.7,1.2,5.1c0.8,1.5,1.8,2.6,3.2,3.3
		C118.6,39.5,120.1,39.8,121.7,39.8"/>
	<path class="st0" d="M147.3-0.1h10v47.6h-10V-0.1z M155.6,40.5l0.3-12.3L172,13h11.9l-15.5,15.7l-5.2,4.3L155.6,40.5z M173.1,47.5
		L161.4,33l6.3-7.8l17.5,22.3H173.1z"/>
	<path class="st0" d="M204.6,48.1c-3.6,0-6.9-0.8-9.7-2.3c-2.8-1.5-5.1-3.6-6.7-6.3c-1.6-2.7-2.4-5.7-2.4-9.1c0-3.5,0.8-6.5,2.4-9.2
		c1.6-2.7,3.9-4.8,6.7-6.3c2.8-1.5,6.1-2.3,9.7-2.3c3.7,0,6.9,0.8,9.8,2.3c2.9,1.5,5.1,3.6,6.7,6.3c1.6,2.7,2.4,5.7,2.4,9.2
		c0,3.5-0.8,6.5-2.4,9.2c-1.6,2.7-3.9,4.7-6.7,6.3C211.5,47.3,208.2,48.1,204.6,48.1 M204.6,39.8c1.7,0,3.2-0.4,4.5-1.1
		c1.3-0.8,2.4-1.8,3.1-3.3c0.8-1.5,1.2-3.2,1.2-5.1c0-2-0.4-3.7-1.2-5.1c-0.8-1.4-1.8-2.5-3.1-3.2c-1.3-0.7-2.8-1.1-4.5-1.1
		c-1.7,0-3.2,0.4-4.5,1.1c-1.3,0.7-2.4,1.8-3.2,3.2c-0.8,1.4-1.2,3.1-1.2,5.1c0,2,0.4,3.7,1.2,5.1c0.8,1.5,1.8,2.6,3.2,3.3
		C201.5,39.5,202.9,39.8,204.6,39.8"/>
	<path class="st0" d="M230.2,47.5V-0.1h10V20l-0.6,10.2l0.2,10.3v7.1H230.2z M250.5,48.1c-3,0-5.5-0.6-7.7-1.9
		c-2.2-1.3-3.9-3.2-5-5.9c-1.2-2.7-1.7-6-1.7-10c0-4.1,0.6-7.4,1.8-10c1.2-2.6,2.9-4.6,5.1-5.8c2.2-1.3,4.7-1.9,7.6-1.9
		c3.3,0,6.2,0.7,8.8,2.2c2.6,1.5,4.6,3.5,6.2,6.2c1.5,2.6,2.3,5.8,2.3,9.4c0,3.6-0.8,6.7-2.3,9.4c-1.5,2.7-3.6,4.7-6.2,6.2
		C256.8,47.3,253.8,48.1,250.5,48.1 M248.9,39.8c1.7,0,3.2-0.4,4.5-1.1c1.3-0.8,2.3-1.8,3.1-3.3c0.8-1.5,1.2-3.2,1.2-5.1
		c0-2-0.4-3.7-1.2-5.1c-0.8-1.4-1.8-2.5-3.1-3.2c-1.3-0.7-2.8-1.1-4.5-1.1c-1.7,0-3.2,0.4-4.5,1.1c-1.3,0.7-2.4,1.8-3.2,3.2
		c-0.8,1.4-1.2,3.1-1.2,5.1c0,2,0.4,3.7,1.2,5.1c0.8,1.5,1.8,2.6,3.2,3.3C245.7,39.5,247.2,39.8,248.9,39.8"/>
	<path class="st0" d="M291.6,48.1c-3.9,0-7.4-0.8-10.3-2.3c-3-1.5-5.2-3.6-6.9-6.3c-1.6-2.7-2.4-5.7-2.4-9.1s0.8-6.5,2.3-9.2
		c1.6-2.7,3.7-4.8,6.5-6.3c2.8-1.5,6-2.3,9.5-2.3c3.4,0,6.4,0.7,9.1,2.2c2.7,1.5,4.9,3.5,6.4,6.2c1.6,2.7,2.4,5.8,2.4,9.6
		c0,0.4,0,0.8-0.1,1.3c0,0.5-0.1,1-0.1,1.4h-28v-5.8h22.8l-3.9,1.7c0-1.8-0.3-3.4-1-4.7c-0.7-1.3-1.7-2.4-3-3.1
		c-1.3-0.7-2.8-1.1-4.5-1.1c-1.7,0-3.2,0.4-4.5,1.1c-1.3,0.8-2.3,1.8-3,3.1c-0.7,1.3-1.1,2.9-1.1,4.8v1.5c0,1.9,0.4,3.6,1.3,5
		c0.9,1.4,2,2.5,3.5,3.2c1.5,0.7,3.3,1.1,5.4,1.1c1.8,0,3.4-0.3,4.8-0.8c1.4-0.6,2.7-1.4,3.8-2.5l5.3,5.8c-1.6,1.8-3.6,3.2-6,4.1
		C297.5,47.6,294.7,48.1,291.6,48.1"/>
	<path class="st0" d="M314.9,47.5V13h9.6v9.8l-1.3-2.9c1-2.4,2.7-4.3,4.9-5.5c2.3-1.3,5-1.9,8.3-1.9v9.3c-0.4-0.1-0.8-0.2-1.1-0.2
		c-0.4,0-0.7-0.1-1.1-0.1c-2.8,0-5.1,0.8-6.7,2.4c-1.7,1.6-2.5,4-2.5,7.3v16.3H314.9z"/>
</g>
</svg>
